<?xml version="1.0" encoding="utf-8"?>
<!-- Generator: Adobe Illustrator 24.0.0, SVG Export Plug-In . SVG Version: 6.00 Build 0)  -->
<svg version="1.1" id="Capa_1" xmlns="http://www.w3.org/2000/svg" xmlns:xlink="http://www.w3.org/1999/xlink" x="0px" y="0px"
	 viewBox="0 0 800 800" style="enable-background:new 0 0 800 800;" xml:space="preserve">
<style type="text/css">
	.st0{fill:#409EFF;}
</style>
<g id="XMLID_789_">
	<path id="XMLID_790_" class="st0" d="M606.9,510.3V289.7c0-25.4-20.6-46-46-46h-92c-22.6,0-41.4,16.4-45.3,37.9L44,298.1
		C19.4,299.2,0,319.4,0,344V456c0,24.6,19.4,44.9,44,45.9l379.7,16.5c3.8,21.5,22.6,37.9,45.3,37.9h92
		C586.3,556.3,606.9,535.7,606.9,510.3z M119.5,427.6v-55.2h147.1v55.2H119.5z"/>
	<path id="XMLID_793_" class="st0" d="M671.3,400c0,15.2,12.4,27.6,27.6,27.6h73.6c15.2,0,27.6-12.4,27.6-27.6
		c0-15.2-12.4-27.6-27.6-27.6h-73.6C683.6,372.4,671.3,384.8,671.3,400z"/>
	<path id="XMLID_794_" class="st0" d="M660.6,291.1c0,3.2,0.6,6.5,1.8,9.7c5.3,14.3,21.2,21.5,35.5,16.2l68.9-25.8
		c14.3-5.3,21.5-21.2,16.2-35.5c-5.3-14.3-21.2-21.5-35.5-16.2l-68.9,25.8C667.5,269.4,660.6,279.9,660.6,291.1z"/>
	<path id="XMLID_795_" class="st0" d="M783,544.4c5.3-14.3-1.9-30.2-16.2-35.5l-68.9-25.8c-14.3-5.3-30.2,1.9-35.5,16.2
		c-1.2,3.2-1.8,6.4-1.8,9.7c0,11.2,6.8,21.7,17.9,25.8l68.9,25.8C761.7,565.9,777.6,558.6,783,544.4z"/>
</g>
</svg>
